<svg width="108" height="24" xmlns="http://www.w3.org/2000/svg">
    <g fill="#FFF" fill-rule="evenodd">
        <g opacity=".3">
            <path d="M15.227.198H13.95a.2.2 0 0 0-.18.185V3.69c0 .54-.19.83-.676.83-.486 0-.674-.265-.674-.806V.378a.207.207 0 0 0-.18-.18H10.96a.144.144 0 0 0-.114.042.153.153 0 0 0-.045.116v3.662c0 1.132.8 2.044 2.276 2.044 1.477 0 2.31-.912 2.31-2.044V.356a.16.16 0 0 0-.161-.158M24.425 2.533l-.924-.329c-.271-.098-.303-.253-.303-.344 0-.147.136-.294.407-.294.412.005.811.15 1.134.413a.128.128 0 0 0 .186-.02l.714-.924a.149.149 0 0 0-.012-.204 3.057 3.057 0 0 0-2.04-.712c-1.326 0-2.116.844-2.116 1.764 0 .722.407 1.387 1.279 1.69l.814.288c.4.14.462.246.462.418 0 .173-.161.336-.48.336-.451 0-.98-.277-1.337-.581a.123.123 0 0 0-.181.019l-.732.988a.154.154 0 0 0 .017.202c.529.474 1.315.82 2.31.82 1.245 0 2.148-.74 2.148-1.855 0-.763-.461-1.363-1.341-1.674M3.937.198H.18A.204.204 0 0 0 0 .382V5.84c.002.09.072.163.16.168h1.317a.166.166 0 0 0 .14-.17v-1.85h1.65c.084.001.156-.06.173-.144l.23-1.186a.121.121 0 0 0-.02-.104.114.114 0 0 0-.095-.045H1.617v-.84h2.11a.186.186 0 0 0 .174-.143L4.122.393A.18.18 0 0 0 4.074.25a.17.17 0 0 0-.137-.053M52.559 1.676a.186.186 0 0 0 .173-.143L52.963.4a.159.159 0 0 0-.024-.128.15.15 0 0 0-.111-.064L49.05.198c-.09 0-.18.196-.18.278v5.362c.014.098.09.174.186.186h3.45a.185.185 0 0 0 .174-.144l.231-1.133a.163.163 0 0 0-.037-.143.154.154 0 0 0-.136-.05H50.49v-.757h1.644a.185.185 0 0 0 .173-.145l.246-1.166a.121.121 0 0 0-.021-.104.114.114 0 0 0-.094-.045H50.49v-.66h2.069z"/>
            <path d="M41.231.33a.216.216 0 0 0-.189-.13h-1.715a.208.208 0 0 0-.183.13l-1.608 5.552a.106.106 0 0 0 .011.097.1.1 0 0 0 .084.045h1.432a.196.196 0 0 0 .17-.142l.23-.875h1.44l.246.877a.203.203 0 0 0 .173.14h1.426a.1.1 0 0 0 .084-.044.106.106 0 0 0 .01-.096L41.232.33zm-1.57 3.104l.522-1.731.518 1.73h-1.04zM47.111 3.805c.678-.344 1.029-.885 1.029-1.688 0-1.016-.797-1.919-2.144-1.919H43.57a.196.196 0 0 0-.18.166v5.474c.008.094.077.17.167.186h1.267a.21.21 0 0 0 .174-.186V4.081h.54l.956 1.812a.265.265 0 0 0 .212.13h1.501c.08 0 .116-.058.072-.128l-1.169-2.09zm-1.27-1.11h-.846V1.675h.808c.462 0 .682.23.682.518 0 .287-.182.5-.644.5zM32 5.238a1.534 1.534 0 0 1-.9.07c.056-.052.115-.104.163-.16a3.117 3.117 0 0 0 .598-3.101C31.478.96 30.47.223 29.33.128c-1.14-.095-2.286.475-2.835 1.497-.577 1.068-.462 2.47.314 3.403.676.806 1.732 1.143 2.728 1l.044.043c.55.533 1.443.83 2.205.83l.315-1.573a.08.08 0 0 0-.026-.077.075.075 0 0 0-.079-.012m-2.913-.693c-.731 0-1.228-.652-1.228-1.455 0-.804.497-1.456 1.228-1.456.73 0 1.232.65 1.232 1.45 0 .8-.495 1.456-1.226 1.456M7.472.128C6.336.034 5.186.603 4.637 1.625c-.577 1.068-.462 2.47.314 3.403C6.063 6.356 8.22 6.41 9.4 5.147a3.117 3.117 0 0 0 .598-3.102C9.617.961 8.606.223 7.472.128m-.247 4.418c-.731 0-1.22-.652-1.22-1.461 0-.81.496-1.456 1.226-1.456s1.22.656 1.22 1.456c0 .8-.495 1.461-1.226 1.461" fill-rule="nonzero"/>
            <path d="M37.094.198h-1.277a.197.197 0 0 0-.178.185v3.328c0 .541-.191.807-.679.807-.487 0-.674-.266-.674-.807V.378a.21.21 0 0 0-.179-.18h-1.252a.25.25 0 0 0-.186.184v3.636c0 1.132.8 2.044 2.276 2.044 1.477 0 2.31-.912 2.31-2.044V.382a.185.185 0 0 0-.16-.184"/>
            <path d="M19.836 3.805c.678-.344 1.03-.885 1.03-1.688 0-1.016-.798-1.919-2.145-1.919h-2.425a.214.214 0 0 0-.18.184V5.84a.203.203 0 0 0 .165.184h1.27a.21.21 0 0 0 .175-.186V4.081h.54l.956 1.812a.265.265 0 0 0 .212.13h1.502c.08 0 .115-.058.071-.128l-1.17-2.09zm-1.26-1.11h-.847V1.675h.808c.462 0 .683.23.683.518 0 .287-.184.5-.646.5h.003z" fill-rule="nonzero"/>
        </g>
        <path d="M3.26 24H.463A.466.466 0 0 1 0 23.531V11.469C0 11.21.207 11 .463 11H3.26C7.654 11 10 13.637 10 17.5S7.656 24 3.26 24zm-.018-11.978h-2.11V23h2.11c3.388 0 5.605-1.857 5.605-5.498 0-3.621-2.217-5.479-5.605-5.479z" fill-rule="nonzero"/>
        <path d="M21.466 12.083h-7.259v4.788h4.48c.295 0 .534.23.534.511a.5.5 0 0 1-.156.361.548.548 0 0 1-.379.15h-4.479v5.048h7.258c.295 0 .535.229.535.51v.038a.5.5 0 0 1-.157.361.548.548 0 0 1-.378.15h-7.974a.48.48 0 0 1-.491-.469V11.47a.48.48 0 0 1 .49-.469h7.975c.142 0 .278.054.378.15a.5.5 0 0 1 .157.36v.057a.5.5 0 0 1-.155.364.548.548 0 0 1-.379.152zM24.544 11c.236 0 .445.166.519.413l3.443 11.417h.034l3.487-11.45a.507.507 0 0 1 .474-.376c.16 0 .312.086.405.23a.6.6 0 0 1 .068.498l-3.612 11.592c-.127.404-.472.676-.86.676s-.733-.271-.86-.675L24.03 11.8a.655.655 0 0 1 .07-.546.533.533 0 0 1 .444-.254zM43.465 12.083h-7.259v4.788h4.48c.295 0 .534.23.534.511a.5.5 0 0 1-.157.361.548.548 0 0 1-.378.15h-4.479v5.048h7.26c.294 0 .534.229.534.51v.038a.5.5 0 0 1-.157.361.548.548 0 0 1-.378.15h-7.974a.48.48 0 0 1-.491-.469V11.47a.48.48 0 0 1 .49-.469h7.975c.295 0 .535.229.535.51v.057a.5.5 0 0 1-.155.364.548.548 0 0 1-.38.152zM47 23.53V11.575c0-.152.061-.299.17-.406a.583.583 0 0 1 .41-.169c.156 0 .305.06.414.169.11.108.171.256.17.41v11.399h5.32a.509.509 0 1 1 .364.872.518.518 0 0 1-.363.15h-6.012a.475.475 0 0 1-.335-.138.467.467 0 0 1-.138-.332z"/>
        <path d="M60.5 11c3.583 0 6.5 2.712 6.5 6.5S64.088 24 60.5 24 54 21.29 54 17.5s2.91-6.5 6.5-6.5zm0 .97c-3.186 0-5.365 2.37-5.365 5.53s2.18 5.532 5.365 5.532c3.186 0 5.365-2.37 5.365-5.53 0-3.161-2.178-5.532-5.365-5.532zM69.655 24c-.362 0-.655-.258-.655-.576V11.47c0-.26.239-.469.534-.469h3.396c3.381 0 5.07 1.758 5.07 3.936s-1.69 4.01-5.07 4.01h-2.62v4.474a.542.542 0 0 1-.19.41.703.703 0 0 1-.465.17zm.655-11.976v5.904h2.768c1.944 0 3.593-1.04 3.593-2.988 0-1.931-1.649-2.916-3.593-2.916H70.31z" fill-rule="nonzero"/>
        <path d="M88.465 12.083h-7.258v4.788h4.48c.295 0 .534.23.534.511a.5.5 0 0 1-.156.361.548.548 0 0 1-.379.15h-4.479v5.048h7.258c.295 0 .535.229.535.51v.038a.5.5 0 0 1-.157.361.548.548 0 0 1-.378.15h-7.974a.48.48 0 0 1-.491-.469V11.47a.48.48 0 0 1 .49-.469h7.975c.295 0 .535.229.535.51v.057a.5.5 0 0 1-.155.364.548.548 0 0 1-.38.152z"/>
        <path d="M94.188 18.281h-2.946v5.143c0 .318-.278.576-.621.576-.343 0-.621-.258-.621-.576V11.47c0-.26.227-.469.506-.469h3.46c2.946 0 4.689 1.407 4.689 3.583 0 1.281-.7 3.027-3.266 3.49l3.516 5.071c.119.171.127.388.021.566a.606.606 0 0 1-.527.286.61.61 0 0 1-.505-.257l-3.706-5.458zm-.16-6.257h-2.783v5.236h2.782c2.064 0 3.366-1.02 3.366-2.617.003-1.654-1.302-2.619-3.366-2.619z" fill-rule="nonzero"/>
        <path d="M107.602 12.643a.586.586 0 0 1-.77.13c-.687-.43-1.639-.806-2.54-.806-1.402 0-2.767.701-2.767 2.102 0 .826.576 1.58 1.96 2.245l1.403.68c2.094 1.02 3.112 2.101 3.112 3.629 0 1.67-1.48 3.377-4.188 3.377a6.079 6.079 0 0 1-3.597-1.134.495.495 0 0 1-.104-.72.584.584 0 0 1 .79-.095c.847.64 1.904.988 2.993.983 1.787 0 2.902-1.168 2.902-2.335 0-1.294-.865-1.959-2.633-2.82l-1.134-.557c-1.748-.862-2.69-1.778-2.69-3.215 0-1.958 1.82-3.107 3.938-3.107a6.27 6.27 0 0 1 3.175.907c.128.077.218.2.247.34a.497.497 0 0 1-.092.403l-.005-.007z"/>
    </g>
</svg>
